<svg xmlns="http://www.w3.org/2000/svg" width="80" height="80" fill="none">
  <path fill="#fff" d="M80 40c0 22.091-17.909 40-40 40S0 62.091 0 40 17.909 0 40 0s40 17.909 40 40Z"/>
  <path fill="#8075FF" fill-rule="evenodd" d="M40 74c18.778 0 34-15.222 34-34S58.778 6 40 6 6 21.222 6 40s15.222 34 34 34Zm0 6c22.091 0 40-17.909 40-40S62.091 0 40 0 0 17.909 0 40s17.909 40 40 40Z" clip-rule="evenodd"/>
  <path fill="#8075FF" fill-rule="evenodd" d="M34.033 36.545Zm-.017-.024a2.5 2.5 0 0 0-4.05 2.932L32 38c-2.034 1.453-2.034 1.454-2.033 1.455l.002.003.003.004.007.01.018.025a5.12 5.12 0 0 0 .194.246c.12.145.285.333.497.55.423.434 1.04.989 1.863 1.537C34.21 42.938 36.687 44 40 44c3.313 0 5.788-1.062 7.45-2.17a11.606 11.606 0 0 0 1.862-1.537 8.982 8.982 0 0 0 .643-.732 5.12 5.12 0 0 0 .048-.064l.017-.025.008-.01.003-.004.002-.003S50.034 39.453 48 38l2.034 1.453a2.5 2.5 0 0 0-4.05-2.932 4.074 4.074 0 0 1-.25.28 6.62 6.62 0 0 1-1.058.87C43.712 38.312 42.186 39 40 39c-2.187 0-3.712-.688-4.676-1.33a6.62 6.62 0 0 1-1.059-.87 4.074 4.074 0 0 1-.25-.28Z" clip-rule="evenodd"/>
  <path fill="#F368E0" fill-opacity=".2" d="M66 38a7 7 0 1 1-14 0 7 7 0 0 1 14 0ZM28 38a7 7 0 1 1-14 0 7 7 0 0 1 14 0Z"/>
  <path fill="#F368E0" fill-rule="evenodd" d="M57.343 22.126a3 3 0 0 1-.469 4.217L54.802 28l2.072 1.657a3 3 0 0 1-3.748 4.686l-5-4a3 3 0 0 1 0-4.686l5-4a3 3 0 0 1 4.217.469ZM22.657 33.874a3 3 0 0 1 .469-4.217L25.198 28l-2.072-1.657a3 3 0 1 1 3.748-4.686l5 4a3 3 0 0 1 0 4.686l-5 4a3 3 0 0 1-4.217-.469Z" clip-rule="evenodd"/>
</svg>
