<svg xmlns="http://www.w3.org/2000/svg" width="80" height="80" fill="none">
  <path fill="#fff" d="M80 40c0 22.091-17.909 40-40 40S0 62.091 0 40 17.909 0 40 0s40 17.909 40 40Z"/>
  <path fill="#8075FF" fill-rule="evenodd" d="M40 74c18.778 0 34-15.222 34-34S58.778 6 40 6 6 21.222 6 40s15.222 34 34 34Zm0 6c22.091 0 40-17.909 40-40S62.091 0 40 0 0 17.909 0 40s17.909 40 40 40Z" clip-rule="evenodd"/>
  <path fill="#F368E0" fill-opacity=".2" d="M66 38a7 7 0 1 1-14 0 7 7 0 0 1 14 0ZM28 38a7 7 0 1 1-14 0 7 7 0 0 1 14 0Z"/>
  <path fill="#F368E0" fill-rule="evenodd" d="M24.17 28.294a3 3 0 0 1 2.122-3.674l3.863-1.035a3 3 0 1 1 1.553 5.795l-3.863 1.036a3 3 0 0 1-3.674-2.122ZM46.17 25.706a3 3 0 0 1 3.675-2.12l3.864 1.034a3 3 0 0 1-1.553 5.796l-3.864-1.035a3 3 0 0 1-2.121-3.675Z" clip-rule="evenodd"/>
  <path fill="#8075FF" fill-rule="evenodd" d="M34.649 36.12a2.5 2.5 0 0 0-3.336 3.725L33 38c-1.687 1.845-1.686 1.846-1.685 1.847l.002.002.004.004.01.008.02.019a3.778 3.778 0 0 0 .203.167 7.4 7.4 0 0 0 .473.343c.395.265.95.588 1.67.902 1.45.631 3.54 1.208 6.303 1.208 2.764 0 4.853-.577 6.303-1.208a10.662 10.662 0 0 0 1.67-.902 7.372 7.372 0 0 0 .675-.51l.021-.019.01-.008.004-.004.002-.002c0-.001.002-.002-1.685-1.847l1.687 1.845a2.5 2.5 0 0 0-3.34-3.72c-.02.015-.071.054-.154.11-.166.11-.459.287-.886.473-.847.369-2.258.792-4.307.792-2.049 0-3.46-.423-4.307-.792a5.683 5.683 0 0 1-.886-.473 2.465 2.465 0 0 1-.154-.11l-.004-.004Z" clip-rule="evenodd"/>
</svg>
