<svg xmlns="http://www.w3.org/2000/svg" width="80" height="80" fill="none">
  <path fill="#fff" d="M80 40c0 22.091-17.909 40-40 40S0 62.091 0 40 17.909 0 40 0s40 17.909 40 40Z"/>
  <path fill="#8075FF" fill-rule="evenodd" d="M40 74c18.778 0 34-15.222 34-34S58.778 6 40 6 6 21.222 6 40s15.222 34 34 34Zm0 6c22.091 0 40-17.909 40-40S62.091 0 40 0 0 17.909 0 40s17.909 40 40 40Z" clip-rule="evenodd"/>
  <path fill="#F368E0" fill-opacity=".2" d="M66 38a7 7 0 1 1-14 0 7 7 0 0 1 14 0ZM28 38a7 7 0 1 1-14 0 7 7 0 0 1 14 0Z"/>
  <path fill="#F368E0" d="M55 30a4 4 0 1 1-8 0 4 4 0 0 1 8 0ZM33 30a4 4 0 1 1-8 0 4 4 0 0 1 8 0Z"/>
  <path fill="#8075FF" d="M45 39c0 3.314-.5 6-5 6s-5-2.686-5-6 2.239-6 5-6 5 2.686 5 6Z"/>
  <path fill="#8075FF" fill-rule="evenodd" d="M48.04 17.507a3 3 0 0 1 3.453-2.466l6 1a3 3 0 0 1-.986 5.919l-6-1a3 3 0 0 1-2.466-3.453ZM31.96 17.507a3 3 0 0 0-3.453-2.466l-6 1a3 3 0 0 0 .986 5.919l6-1a3 3 0 0 0 2.466-3.453Z" clip-rule="evenodd"/>
</svg>
